<mxfile host="Electron" agent="Mozilla/5.0 (Windows NT 10.0; Win64; x64) AppleWebKit/537.36 (KHTML, like Gecko) draw.io/24.7.17 Chrome/128.0.6613.36 Electron/32.0.1 Safari/537.36" version="24.7.17">
  <diagram name="Page-1" id="mAjtOwHos-YVzbYe16F_">
    <mxGraphModel dx="1050" dy="669" grid="1" gridSize="10" guides="1" tooltips="1" connect="1" arrows="1" fold="1" page="1" pageScale="1" pageWidth="850" pageHeight="1100" math="0" shadow="0">
      <root>
        <mxCell id="0" />
        <mxCell id="1" parent="0" />
        <mxCell id="T57yJgtLd-PgPbL6ISV8-1" value="Diem" style="swimlane;fontStyle=1;align=center;verticalAlign=top;childLayout=stackLayout;horizontal=1;startSize=26;horizontalStack=0;resizeParent=1;resizeParentMax=0;resizeLast=0;collapsible=1;marginBottom=0;whiteSpace=wrap;html=1;" vertex="1" parent="1">
          <mxGeometry x="340" y="300" width="160" height="230" as="geometry">
            <mxRectangle x="340" y="300" width="70" height="30" as="alternateBounds" />
          </mxGeometry>
        </mxCell>
        <mxCell id="T57yJgtLd-PgPbL6ISV8-2" value="+ iHoanh: float&lt;div&gt;+ iTung: float&lt;/div&gt;" style="text;strokeColor=none;fillColor=none;align=left;verticalAlign=top;spacingLeft=4;spacingRight=4;overflow=hidden;rotatable=0;points=[[0,0.5],[1,0.5]];portConstraint=eastwest;whiteSpace=wrap;html=1;" vertex="1" parent="T57yJgtLd-PgPbL6ISV8-1">
          <mxGeometry y="26" width="160" height="34" as="geometry" />
        </mxCell>
        <mxCell id="T57yJgtLd-PgPbL6ISV8-3" value="" style="line;strokeWidth=1;fillColor=none;align=left;verticalAlign=middle;spacingTop=-1;spacingLeft=3;spacingRight=3;rotatable=0;labelPosition=right;points=[];portConstraint=eastwest;strokeColor=inherit;" vertex="1" parent="T57yJgtLd-PgPbL6ISV8-1">
          <mxGeometry y="60" width="160" height="20" as="geometry" />
        </mxCell>
        <mxCell id="T57yJgtLd-PgPbL6ISV8-4" value="+ Diem()&lt;div&gt;+ Diem(int, int)&lt;/div&gt;&lt;div&gt;+ Diem(const Diem &amp;amp;)&lt;/div&gt;&lt;div&gt;+ Xuat(): void&lt;/div&gt;&lt;div&gt;+ GetTungDo(): float&lt;/div&gt;&lt;div&gt;+ GetHoanhDo(): float&lt;/div&gt;&lt;div&gt;+ SetTungDo(): void&lt;/div&gt;&lt;div&gt;+ SetHoanhDo(): void&lt;/div&gt;&lt;div&gt;+ TinhTien(float, float): void&lt;/div&gt;" style="text;strokeColor=none;fillColor=none;align=left;verticalAlign=top;spacingLeft=4;spacingRight=4;overflow=hidden;rotatable=0;points=[[0,0.5],[1,0.5]];portConstraint=eastwest;whiteSpace=wrap;html=1;" vertex="1" parent="T57yJgtLd-PgPbL6ISV8-1">
          <mxGeometry y="80" width="160" height="150" as="geometry" />
        </mxCell>
      </root>
    </mxGraphModel>
  </diagram>
</mxfile>
